# xmcd CD database file
#
# Track frame offsets:
#	150
#	18188
#	34425
#	53325
#	69690
#	83079
#	98496
#	113116
#	130062
#	149102
#	166691
#	186120
#	198940
#	215741
#
# Disc length: 3096 seconds
#
# Revision: 1
# Processed by: cddbd v1.5.2PL0 Copyright (c) Steve Scherf et al.
# Submitted via: CDex 1.51
#
DISCID=be0c160e
DTITLE=Vários - Clube da Viola
DYEAR=2002
DGENRE=Sertanejo
TTITLE0=Guilherme and Gustavo - vou te amar
TTITLE1=Maúricio and Marcelo - Final Feliz
TTITLE2=Roby and Roger - fogo de amor
TTITLE3=Christian and Cristiano - Livre para voar
TTITLE4=Maurício and Marcelo - Meu doce gosto
TTITLE5=Roby and Roger - Eu sou do seu programa
TTITLE6=Guilherme and Gustavo - Se achegue
TTITLE7=Christian and Cristiano - Louco, louco
TTITLE8=Maurício and Marcelo - Pobre de quem foge de amor
TTITLE9=Guilherme and Gustavo - Morro de medo
TTITLE10=Christian and Cristiano - Garota do Brasil
TTITLE11=Maurício and Marcelo - Quarentona
TTITLE12=Guilherme and Gustavo - Viajante sem rumo
TTITLE13=Roby and Roger - Da pá virada
EXTD=YEAR: 2002
EXTT0=
EXTT1=
EXTT2=
EXTT3=
EXTT4=
EXTT5=
EXTT6=
EXTT7=
EXTT8=
EXTT9=
EXTT10=
EXTT11=
EXTT12=
EXTT13=
PLAYORDER=
